<svg xmlns="http://www.w3.org/2000/svg" viewBox="0 0 502 210.649" height="210.65" width="502"><link xmlns="" type="text/css" rel="stylesheet" id="dark-mode-custom-link"/><link xmlns="" type="text/css" rel="stylesheet" id="dark-mode-general-link"/><style xmlns="" lang="en" type="text/css" id="dark-mode-custom-style"/><style xmlns="" lang="en" type="text/css" id="dark-mode-native-style"/><g><path d="M498.333 45.7s-2.91-20.443-11.846-29.447C475.157 4.44 462.452 4.38 456.627 3.687c-41.7-3-104.25-3-104.25-3h-.13s-62.555 0-104.255 3c-5.826.693-18.523.753-29.86 12.566-8.933 9.004-11.84 29.447-11.84 29.447s-2.983 24.003-2.983 48.009v22.507c0 24.006 2.983 48.013 2.983 48.013s2.907 20.44 11.84 29.446c11.337 11.817 26.23 11.44 32.86 12.677 23.84 2.28 101.315 2.983 101.315 2.983s62.62-.094 104.32-3.093c5.824-.694 18.527-.75 29.857-12.567 8.936-9.006 11.846-29.446 11.846-29.446s2.98-24.007 2.98-48.013V93.709c0-24.006-2.98-48.01-2.98-48.01" fill="#cd201f"/><g><path d="M187.934 169.537h-18.96V158.56c-7.19 8.24-13.284 12.4-19.927 12.4-5.826 0-9.876-2.747-11.9-7.717-1.23-3.02-2.103-7.736-2.103-14.663V68.744h18.957v81.833c.443 2.796 1.636 3.823 4.043 3.823 3.63 0 6.913-3.153 10.93-8.817V68.744h18.96v100.793zM102.109 139.597c.996 9.98-2.1 14.93-7.987 14.93s-8.98-4.95-7.98-14.93v-39.92c-1-9.98 2.093-14.657 7.98-14.657 5.89 0 8.993 4.677 7.996 14.657l-.01 39.92zm18.96-37.923c0-10.77-2.164-18.86-5.987-23.95-5.054-6.897-12.973-9.72-20.96-9.72-9.033 0-15.913 2.823-20.957 9.72-3.886 5.09-5.97 13.266-5.97 24.036l-.016 35.84c0 10.71 1.853 18.11 5.736 23.153 5.047 6.873 13.227 10.513 21.207 10.513 7.986 0 16.306-3.64 21.36-10.513 3.823-5.043 5.586-12.443 5.586-23.153v-35.926zM46.223 114.647v54.889h-19.96v-54.89S5.582 47.358 1.314 34.815H22.27L36.277 87.38l13.936-52.566H71.17l-24.947 79.833z"/></g><g fill="#fff"><path d="M440.413 96.647c0-9.33 2.557-11.874 8.59-11.874 5.99 0 8.374 2.777 8.374 11.997v10.893l-16.964.02V96.647zm35.96 25.986l-.003-20.4c0-10.656-2.1-18.456-5.88-23.5-5.06-6.823-12.253-10.436-21.317-10.436-9.226 0-16.42 3.613-21.643 10.436-3.84 5.044-6.076 13.28-6.076 23.943v34.927c0 10.596 2.46 18.013 6.296 23.003 5.227 6.813 12.42 10.216 21.87 10.216 9.44 0 16.853-3.566 21.85-10.81 2.2-3.196 3.616-6.82 4.226-10.823.164-1.81.64-5.933.64-11.753v-2.827h-18.96c0 7.247.037 11.557-.133 12.54-1.033 4.834-3.623 7.25-8.07 7.25-6.203 0-8.826-4.636-8.76-13.843v-17.923h35.96zM390.513 140.597c0 9.98-2.353 13.806-7.563 13.806-2.973 0-6.4-1.53-9.423-4.553l.02-60.523c3.02-2.98 6.43-4.55 9.403-4.55 5.21 0 7.563 2.93 7.563 12.91v42.91zm2.104-72.453c-6.647 0-13.253 4.087-19.09 11.27l.02-43.603h-17.963V169.54h17.963l.027-10.05c6.036 7.47 12.62 11.333 19.043 11.333 7.193 0 12.45-3.85 14.863-11.267 1.203-4.226 1.993-10.733 1.993-19.956V99.684c0-9.447-1.21-15.907-2.416-19.917-2.41-7.466-7.247-11.623-14.44-11.623M340.618 169.537h-18.956V158.56c-7.193 8.24-13.283 12.4-19.926 12.4-5.827 0-9.877-2.747-11.9-7.717-1.234-3.02-2.107-7.736-2.107-14.663V69.744h18.96v80.833c.443 2.796 1.633 3.823 4.043 3.823 3.63 0 6.913-3.153 10.93-8.817V69.744h18.957v99.793z"/><path d="M268.763 169.537h-19.956V54.77h-20.956V35.835l62.869-.024v18.96h-21.957v114.766z"/></g></g><style xmlns="" id="cliqz-adblokcer-css-rules">#\5f CookieText, #\5f _accept_cookie, #\5f _ic-notice, #\5f _ndcc_cookieImpliedConsent, #\5f cookieConsentWrapper, #\5f iph_cp_popup, #__layout div[class*="cookie-popup"], #__next div[aria-labelledby*="cookie-dialog"], #__next div[class*="CookieConsent"], #__next div[class*="CookieMesage"], #__next div[class*="privacy-notification"], #__next div[data-selector="container@cookiebar"], #cookieBanner\.banner, #js\.cookie\.banner, .RootContainerClassName div[class*="CookieNotificationPopup"], .dv-responsive div[data-bind*="CookiesInfo"], .footer div[id*="CookieBannerLink"], .s·footer-gdpr, COOKIE-ALERT, COOKIE-HEADER, DCINFO_COOKIE_AGB, GDPR-NOTICE, [aria-describedby="cookie-information"], [aria-describedby="cookieprivacy"], [aria-describedby="cookies-policy-message"], [aria-describedby="dialog-eu-cookie-law"], [aria-describedby^="cookie-wall-"], [aria-labelledby="cookie-dialog"], [aria-labelledby="cookie-wall-heading"], [aria-labelledby="ui-dialog-title-cookiebox"], [cnn-cookie-policy], [cookie-unique-name], [data-alert-cookie], [data-at-selector="cookie-banner"], [data-bind="visible: showCookieWarning"], [data-ccpa], [data-cookie-validity-days], [data-cookie="uso-accept-cookies"], [data-cookie^="cookie.disclaimer"], [data-cy="cookie-banner"], [data-dmid*="cookiebar-"], [data-key="cookies-warning"], [data-module="cookies"], [data-name="cookieNotice"], [data-name^="CookiesNotification"], [data-notification="CookiePolicyAgreement"], [data-qa="CookieBar"], [data-qa="txtGdprCookiePopup"], [data-react-class="EUCookieBanner"], [data-rgpd-inc], [data-s-type="cookie-message"], [data-selector="cookie-policy"], [data-target="coockie"], [data-test-id="cookie-consent-banner"], [data-test="cookie-banner"], [data-test="gdpr-modal"], [data-testid="cookienotice-container"], [data-testid="cookies_footer"], [data-testid="main-cookies-banner-container"], [data-token="gdpr_cookie_notice"], [data-type="cookie-addsense"], [data-unique-cookie-name], [data-veci="cookies-policy"], [name="cookie-info"], [ng-show^="cookiePolicyCtrl"], [type="cookie-notification"], accept-cookie-box, acidjs-xcookie-consent, adcookies, amedia-privacybox, amp-consent, amp-user-notification, app-accept-cookie, app-aviso-cookie, app-banner[arialabel*="Cookies"], app-ccpa-banner, app-cookie, app-cookie-banner, app-cookie-consent, app-cookie-consent-feature, app-cookie-consent-modal, app-cookie-consent-popup, app-cookie-msg, app-cookie-notification, app-cookie-policy, app-cookie-popup, app-cookie-rules, app-cookie-warning, app-cookies-banner, app-cookies-consent, app-cookies-policy, app-cookies-policy-updated, app-cookies-popup, app-cookies-toast, app-foncia-cookie-banner, app-rodo, app-root app-cookie-acceptance, ark-cookiebar, atlas-logon-cookie-policy, avis-cookies, awsui-alert[dismiss*="CookieBanner"], aza-cookie-message, b2c-cookies-notification, body &gt; .btn-cookie, browser-login-cookie-notification, c-cookie-consent, c-ecp-cookies-banner, cbn-cookies, cg-cookies-banner, cloudflare-app[app="cookiless"], cloudflare-app[app="tibrr-cookie-consent"], cmm-cookie-banner, cmpviews-cookies-accept, cn-cookie-agreement, col-cookie-info-banner, comply-consent-manager, consent, consent-notification, cook-disclaimer, cookie-agreement-block, cookie-alert, cookie-banner, cookie-bar, cookie-confirmation, cookie-consent, cookie-consent-banner, cookie-consent-component, cookie-drawer-policy, cookie-info, cookie-law-banner, cookie-notice, cookie-notification, cookie-permission, cookie-policy, cookie-policy-popin, cookie-popup, cookie-warning, cookie-wrap, cookie_notice, cookiebox, cookies-consent, cookies-gdpr, cookies-hint, cookies-overlay, cookies-policy, cookies-popup, cookies-requirement, cookies-warning, cookies.ng-scope, cookiless-div, cru-cookie-policy, cts-disclaimer-cookies, dayaway-cookie-consent, dile-cookies-consent, div[data-automation="cookies-banner"], div[data-automation="privacy-banner-wrapper"], div[data-banner="cookies"], div[data-borlabs-cookie-wrap], div[data-box-name="cookie policy"], div[data-cmp-no-consent], div[data-component="cookie-policy"], div[data-component="cookieContent"], div[data-components="pdr-ws1lib-header"], div[data-container-acceptcookies], div[data-cookie-law-banner-selector], div[data-cookie-name], div[data-cookie-notification], div[data-cookie-path], div[data-cookie-policy-modal], div[data-cookie-warning], div[data-cookiebanner], div[data-cookiebar], div[data-cookielayer-init], div[data-corgi-component="cookie-banner"], div[data-etsy-promo-cookie-expires], div[data-gdpr-consent-prompt], div[data-id="cookieBar"], div[data-id="cookie_dialog"], div[data-is-cookieinfo], div[data-module="cookie_banner"], div[data-notificationid="cookie"], div[data-pnp-mi-id="mi-cookies"], div[data-pov-accept-cookies-message], div[data-privacy-consent], div[data-react-class="CookieNotice"], div[data-role="cookie-policy-banner"], div[data-section-type="CookiesBanner"], div[data-selector="container@cookiebar"], div[data-selen-group="cookies-bar"], div[data-selenium="CookieBanner"], div[data-test-sell-cookie-banner], div[data-test="cookie-policy-banner"], div[data-testid="cookie-disclaimer"], div[data-wzb="CookieNotification"], div[element-structure-cookiemonster], div[js-cookies], div[ld-scope="cookie-consent"], div[ng-click="self.setCookieDisclaimer()"], div[spec="cookie-disclaimer"], dk-cookie-warning, dva-m-cookie-flyout, ea-truste-consent-bar, edn-cookie, eo-cookie-bar, epaas-consent-drawer-shell, esn-cookie-disclaimer, eu-cookie-compliance, fab-cookie-control-banner2, fdp-widget-cookie-consent, footer &gt; #cookies, footer &gt; .cookie, form[name="FormLeggeCookies"], g-cookie-policy, gdpr-consent, gdpr-cookies, gdpr-policies, gdprpopupmod, gfp-cookie-policy-notice, gj-cookie-prompt, hma-cookie-notification, idg-cookie-info-bar, ing-ui-rba-cookie, ir-cookie-consent, jsa-cookie, kuma-cookie-bar, lib-privacy-policy-toast, lnb-cookie-policy-overlay, loop-cookie, m-cookies-notice, mct-templater-cookie-consent, md-toast.cookies-toast, mip-cookie-info, n9-disclaimer-cookies, nges-cookie-notification, nl-cookie-notice, nosid-cookie-banner, ns-cookie-privacy-tip, o-cookie-law, ocaso-global-modal, oct-cookie-consent, ods-accept-cookies-message, of-cookies-notice, onl-cookie, outer-wrapper-cookie, pd-cookie-banner, pdo-cookies-policy, policy-consent, pp-cookie-dialog, privacy-policy-toast, rtk-cookies-notice, sd-cookies-widget, section &gt; .cookie, section[class*="_CookieNotice"], section[data-component="Com3Cookie"], section[data-test-id="cookie-notice"], section[data-view="cookiePolicy"], sell-cookie-banner, shb-cookie-accept, shb-cookie-consent, sibbo-cmp-layout, sj-cookie-banner, staedtler-cookie-banner, suchen-cookie-privacy-toast, tag-cookie-banner, thread-cookie-notice, ts-cookie-msg, tui-cookie-bar, tui-cookie-consent, tuugo-notification, uc-cookie-notification, ugc-cookie-banner, vc-site-cookiepolicy-dialog, veiss-cookies, vls-cookie-banner, voc-cookie-warning, wc-cookies, web-cookie-consent, wp-cookie-notification-banner, wx-cookie-policy-notification, xk-cookie-policy-warning, yd-cookie-notice, yg-cookie-confirm, ytd-app ~ iron-overlay-backdrop, ytd-consent-bump-renderer, ytd-mealbar-promo-renderer, ytg-notification-footer, [class^="cookieBox-"], div[class*="CookieConsent"], body.sliding-popup-processed &gt; #sliding-popup, header &gt; #notify-bar, div &gt; #cnsh[style="display: block;"], div[style="min-width: 750px;"] &gt; .gb_wb, div[style*="box-shadow: rgb(136, 136, 136) 0px 0px 12px; color: "]  { display: none !important; }</style><style xmlns="" id="cliqz-adblokcer-css-rules">cookie-modal, div[data-testid="cookie-policy-banner"], thor-cookies  { display: none !important; }</style></svg>